<svg width="25" height="34" viewBox="0 0 25 34" fill="none" xmlns="http://www.w3.org/2000/svg">
<path fill-rule="evenodd" clip-rule="evenodd" d="M15.4855 32.6993C15.2727 32.2923 15.1531 31.7407 15.1531 31.1655C15.1531 30.5903 15.2727 30.0386 15.4855 29.6316L21.1221 18.8656H8.71247C7.26847 18.8656 5.12596 18.0553 3.31377 15.5635C1.44248 12.9878 1.90735e-06 8.71899 1.90735e-06 2.22468C1.90735e-06 1.64902 0.119728 1.09692 0.332846 0.689865C0.545965 0.282806 0.835016 0.0541229 1.13641 0.0541229C1.43781 0.0541229 1.72686 0.282806 1.93997 0.689865C2.15309 1.09692 2.27282 1.64902 2.27282 2.22468C2.27282 7.30668 3.3562 10.2702 4.64109 12.0385C5.98509 13.8878 7.63212 14.5245 8.71247 14.5245L21.1221 14.5245L15.4855 3.75855C15.3738 3.55983 15.2843 3.3202 15.2222 3.05395C15.16 2.78769 15.1266 2.50027 15.124 2.20883C15.1213 1.91739 15.1493 1.6279 15.2065 1.35763C15.2636 1.08735 15.3487 0.841839 15.4566 0.635723C15.5645 0.429611 15.6931 0.267124 15.8346 0.157955C15.9761 0.04879 16.1276 -0.00482178 16.2802 0.000320435C16.4328 0.00546265 16.5833 0.069252 16.7227 0.187885C16.8621 0.306519 16.9876 0.477566 17.0916 0.690819L24.6677 15.1612C24.8805 15.5682 25 16.1199 25 16.6951C25 17.2703 24.8805 17.8219 24.6677 18.2289L17.0916 32.6993C16.8785 33.1058 16.5897 33.3341 16.2885 33.3341C15.9874 33.3341 15.6985 33.1058 15.4855 32.6993Z" fill="#A259FF"/>
</svg>