
<svg width="60" height="62" viewBox="0 0 60 62" fill="none" xmlns="http://www.w3.org/2000/svg">
<path d="M15.225 38.7474C14.2516 36.4741 13.7492 34.0155 13.75 31.5296C13.75 21.9583 21.025 14.2057 30 14.2057C38.975 14.2057 46.25 21.9609 46.25 31.5296C46.2508 34.0155 45.7484 36.4741 44.775 38.7474M30 5.16408V7.74741M55 30.9974H52.5M7.5 30.9974H5M47.675 12.7307L45.9075 14.5571M14.0925 14.5597L12.325 12.7332M36.2925 49.8738C38.8175 49.0291 39.8325 46.6395 40.1175 44.237C40.2025 43.5188 39.63 42.9221 38.93 42.9221H21.1925C21.0216 42.9193 20.852 42.954 20.695 43.0239C20.538 43.0939 20.3972 43.1975 20.2819 43.3279C20.1665 43.4583 20.0793 43.6126 20.026 43.7804C19.9727 43.9483 19.9544 44.1259 19.9725 44.3016C20.2525 46.6989 20.9575 48.4504 23.6325 49.8712M36.2925 49.8738L23.6325 49.8712M36.2925 49.8738C35.99 54.8984 34.585 56.8876 30.0175 56.8307C25.1325 56.9237 24.0075 54.4618 23.6325 49.8712" stroke="url(#paint0_linear_1_341)" stroke-width="1.5" stroke-linecap="round" stroke-linejoin="round"/>
<defs>
<linearGradient id="paint0_linear_1_341" x1="30" y1="5.16408" x2="30" y2="56.8333" gradientUnits="userSpaceOnUse">
<stop stop-color="#A259FF"/>
<stop offset="0.5" stop-color="#3931F9"/>
<stop offset="0.68" stop-color="#FE3796"/>
</linearGradient>
</defs>
</svg>