<svg width="24" height="24" viewBox="0 0 24 24" fill="none" xmlns="http://www.w3.org/2000/svg">
<path d="M18.483 16.767C17.1162 17.0952 15.6893 17.0793 14.3301 16.7207C12.9709 16.3621 11.7219 15.6721 10.6948 14.7123C9.6678 13.7526 8.89481 12.5531 8.44511 11.2213C7.9954 9.88945 7.883 8.4669 8.11799 7.08099C8.08225 7.11551 8.04452 7.1479 8.00499 7.17799C7.72499 7.39099 7.37499 7.46999 6.67499 7.62799L6.03999 7.77199C3.57999 8.32899 2.34999 8.60699 2.05699 9.54799C1.76499 10.488 2.60299 11.469 4.27999 13.43L4.71399 13.937C5.18999 14.494 5.42899 14.773 5.53599 15.117C5.64299 15.462 5.60699 15.834 5.53499 16.577L5.46899 17.254C5.21599 19.871 5.08899 21.179 5.85499 21.76C6.62099 22.342 7.77299 21.812 10.075 20.751L10.672 20.477C11.326 20.175 11.653 20.025 12 20.025C12.347 20.025 12.674 20.175 13.329 20.477L13.924 20.751C16.227 21.811 17.379 22.341 18.144 21.761C18.911 21.179 18.784 19.871 18.531 17.254L18.483 16.767Z" fill="#A259FF"/>
<path opacity="0.5" d="M9.15301 5.408L8.825 5.996C8.465 6.642 8.28501 6.965 8.00501 7.178C8.04501 7.148 8.08201 7.116 8.11801 7.081C7.88296 8.46701 7.99535 9.88967 8.4451 11.2216C8.89486 12.5535 9.66794 13.7531 10.6951 14.7128C11.7223 15.6726 12.9715 16.3627 14.3308 16.7212C15.6901 17.0797 17.1171 17.0954 18.484 16.767L18.464 16.577C18.393 15.834 18.357 15.462 18.464 15.117C18.571 14.773 18.809 14.494 19.286 13.937L19.72 13.43C21.397 11.47 22.235 10.489 21.942 9.548C21.65 8.607 20.42 8.328 17.96 7.772L17.324 7.628C16.625 7.47 16.275 7.391 15.994 7.178C15.714 6.965 15.534 6.642 15.174 5.996L14.847 5.408C13.58 3.136 12.947 2 12 2C11.053 2 10.42 3.136 9.15301 5.408Z" fill="url(#paint0_linear_1_300)"/>
<defs>
<linearGradient id="paint0_linear_1_300" x1="14.999" y1="2" x2="14.999" y2="17.0022" gradientUnits="userSpaceOnUse">
<stop stop-color="#A259FF"/>
<stop offset="0.5" stop-color="#3931F9"/>
<stop offset="0.68" stop-color="#FE3796"/>
</linearGradient>
</defs>
</svg>