<svg width="22" height="22" viewBox="0 0 22 22" fill="none" xmlns="http://www.w3.org/2000/svg">
<path d="M19 8C18.205 4.015 14.513 1 10.08 1C5.064 1 1 4.855 1 9.61C1 11.895 1.938 13.97 3.469 15.51C3.805 15.85 4.03 16.313 3.939 16.79C3.79116 17.5657 3.45227 18.2922 2.953 18.904C4.26146 19.1411 5.61162 18.933 6.788 18.313C7.2 18.095 7.407 17.987 7.552 17.965C7.654 17.949 7.787 17.964 8 18" stroke="#A259FF" stroke-width="1.5" stroke-linecap="round" stroke-linejoin="round"/>
<path d="M10 15.262C10 18.167 12.463 20.523 15.5 20.523C15.858 20.523 16.2127 20.4903 16.564 20.425C16.817 20.378 16.943 20.354 17.031 20.367C17.119 20.381 17.244 20.447 17.494 20.58C18.2 20.956 19.024 21.089 19.817 20.941C19.5136 20.567 19.308 20.1233 19.219 19.65C19.164 19.358 19.3 19.075 19.505 18.868C20.46 17.9106 20.9974 16.6143 21 15.262C21 12.356 18.537 10 15.5 10C12.463 10 10 12.356 10 15.262Z" stroke="#A259FF" stroke-width="1.5" stroke-linecap="round" stroke-linejoin="round"/>
</svg>