<svg width="15" height="29" viewBox="0 0 15 29" fill="none" xmlns="http://www.w3.org/2000/svg">
<path id="Vector" d="M14.6057 26.7489L3.07893 15.4273C2.82612 15.1803 2.68433 14.8469 2.68433 14.4994C2.68433 14.1519 2.82612 13.8184 3.07893 13.5714L14.6032 2.24988C14.8559 2.00132 14.9975 1.66678 14.9975 1.31829C14.9975 0.969812 14.8559 0.635269 14.6032 0.386713C14.4798 0.264318 14.3323 0.167048 14.1693 0.100632C14.0064 0.0342159 13.8314 -1.90735e-06 13.6545 -1.90735e-06C13.4777 -1.90735e-06 13.3027 0.0342159 13.1398 0.100632C12.9768 0.167048 12.8293 0.264318 12.7059 0.386713L1.18154 11.7058C0.424273 12.4514 0 13.4545 0 14.4994C0 15.5442 0.424273 16.5474 1.18154 17.2929L12.7059 28.612C12.8293 28.7348 12.977 28.8324 13.1402 28.899C13.3033 28.9657 13.4787 29 13.6558 29C13.8329 29 14.0083 28.9657 14.1714 28.899C14.3346 28.8324 14.4823 28.7348 14.6057 28.612C14.8584 28.3635 15 28.0289 15 27.6805C15 27.332 14.8584 26.9974 14.6057 26.7489Z" fill="#A259FF"/>
</svg>
