<svg width="46" height="46" viewBox="0 0 46 46" fill="none" xmlns="http://www.w3.org/2000/svg">
<g id="hugeicons:idea-01">
<path id="Vector" d="M11.6725 28.748C10.9262 27.0613 10.541 25.2372 10.5416 23.3928C10.5416 16.2916 16.1191 10.5396 23 10.5396C29.8808 10.5396 35.4583 16.2935 35.4583 23.3928C35.4589 25.2372 35.0737 27.0613 34.3275 28.748M23 3.8313V5.74797M42.1666 22.998H40.25M5.74998 22.998H3.83331M36.5508 9.44522L35.1957 10.8003M10.8042 10.8022L9.44915 9.44713M27.8242 37.003C29.7601 36.3763 30.5382 34.6034 30.7567 32.8209C30.8219 32.2881 30.383 31.8453 29.8463 31.8453H16.2476C16.1165 31.8432 15.9865 31.869 15.8661 31.9209C15.7458 31.9728 15.6378 32.0497 15.5494 32.1464C15.461 32.2432 15.3941 32.3576 15.3532 32.4821C15.3124 32.6067 15.2984 32.7385 15.3122 32.8688C15.5269 34.6475 16.0674 35.947 18.1182 37.0011M27.8242 37.003L18.1182 37.0011M27.8242 37.003C27.5923 40.731 26.5151 42.2068 23.0134 42.1646C19.2682 42.2336 18.4057 40.407 18.1182 37.0011" stroke="url(#paint0_linear_177_3314)" stroke-width="1.5" stroke-linecap="round" stroke-linejoin="round"/>
</g>
<defs>
<linearGradient id="paint0_linear_177_3314" x1="23" y1="3.8313" x2="23" y2="42.1665" gradientUnits="userSpaceOnUse">
<stop stop-color="#A259FF"/>
<stop offset="0.5" stop-color="#3931F9"/>
<stop offset="0.68" stop-color="#FE3796"/>
</linearGradient>
</defs>
</svg>
