<svg width="25" height="27" viewBox="0 0 25 27" fill="none" xmlns="http://www.w3.org/2000/svg">
<path d="M12.5 0C14.1576 0 15.7473 0.711158 16.9194 1.97703C18.0915 3.2429 18.75 4.95979 18.75 6.75C18.75 8.54021 18.0915 10.2571 16.9194 11.523C15.7473 12.7888 14.1576 13.5 12.5 13.5C10.8424 13.5 9.25268 12.7888 8.08058 11.523C6.90848 10.2571 6.25 8.54021 6.25 6.75C6.25 4.95979 6.90848 3.2429 8.08058 1.97703C9.25268 0.711158 10.8424 0 12.5 0ZM12.5 3.375C11.6712 3.375 10.8763 3.73058 10.2903 4.36351C9.70424 4.99645 9.375 5.85489 9.375 6.75C9.375 7.64511 9.70424 8.50355 10.2903 9.13649C10.8763 9.76942 11.6712 10.125 12.5 10.125C13.3288 10.125 14.1237 9.76942 14.7097 9.13649C15.2958 8.50355 15.625 7.64511 15.625 6.75C15.625 5.85489 15.2958 4.99645 14.7097 4.36351C14.1237 3.73058 13.3288 3.375 12.5 3.375ZM12.5 15.1875C16.6719 15.1875 25 17.4319 25 21.9375V27H0V21.9375C0 17.4319 8.32812 15.1875 12.5 15.1875ZM12.5 18.3937C7.85938 18.3937 2.96875 20.8575 2.96875 21.9375V23.7938H22.0312V21.9375C22.0312 20.8575 17.1406 18.3937 12.5 18.3937Z" fill="#A259FF"/>
</svg>
