<svg width="26" height="27" viewBox="0 0 26 27" fill="none" xmlns="http://www.w3.org/2000/svg">
<path d="M7.43599 19.5241L9.72529 18.8384L23.5092 4.35373C23.6179 4.23803 23.6784 4.08257 23.6777 3.92092C23.677 3.75927 23.615 3.60441 23.5053 3.48978L22.6798 2.62313C22.6264 2.56621 22.5627 2.5209 22.4923 2.48983C22.4219 2.45877 22.3463 2.44257 22.2698 2.4422C22.1933 2.44182 22.1175 2.45727 22.0468 2.48764C21.9762 2.51801 21.912 2.56269 21.8582 2.61908L8.11069 17.0659L7.43599 19.5241ZM24.3139 0.906027L25.1394 1.77403C26.2782 2.97141 26.2886 4.90314 25.1602 6.08837L10.9564 21.0158L6.06319 22.4791C5.76445 22.5659 5.44473 22.5262 5.1742 22.3685C4.90367 22.2108 4.70443 21.9482 4.62019 21.6381C4.55751 21.4152 4.55661 21.1785 4.61759 20.9551L6.04109 15.7714L20.2072 0.883079C20.4765 0.601428 20.7972 0.378291 21.1505 0.226683C21.5038 0.0750739 21.8826 -0.00197211 22.2649 3.83551e-05C22.6471 0.00204882 23.0252 0.0830755 23.377 0.238393C23.7288 0.39371 24.0473 0.621558 24.3139 0.906027ZM9.33919 2.46249C9.98398 2.46249 10.5066 3.0119 10.5066 3.68956C10.5076 3.84976 10.4782 4.00859 10.4201 4.15698C10.362 4.30537 10.2762 4.4404 10.1678 4.55437C10.0594 4.66833 9.93041 4.75899 9.78823 4.82115C9.64604 4.88331 9.49345 4.91576 9.33919 4.91664H4.66959C3.37999 4.91664 2.3348 6.01548 2.3348 7.36945V22.0917C2.3348 23.447 3.37999 24.5458 4.66959 24.5458H18.6784C19.968 24.5458 21.0145 23.447 21.0145 22.0917V17.1847C21.0145 16.5071 21.5371 15.9576 22.1819 15.9576C22.8267 15.9576 23.3493 16.5071 23.3493 17.1861V22.0917C23.3493 24.8023 21.2576 27 18.6784 27H4.66959C2.0904 27 0 24.8023 0 22.0917V7.36945C0 4.66016 2.0904 2.46249 4.66959 2.46249H9.33919Z" fill="url(#paint0_linear_177_3277)"/>
<defs>
<linearGradient id="paint0_linear_177_3277" x1="13" y1="0" x2="13" y2="27" gradientUnits="userSpaceOnUse">
<stop stop-color="#A259FF"/>
<stop offset="0.5" stop-color="#3931F9"/>
<stop offset="0.68" stop-color="#FE3796"/>
</linearGradient>
</defs>
</svg>
